<?xml version="1.0" standalone="no"?>
<!DOCTYPE svg PUBLIC "-//W3C//DTD SVG 20010904//EN"
 "http://www.w3.org/TR/2001/REC-SVG-20010904/DTD/svg10.dtd">
<svg version="1.0" xmlns="http://www.w3.org/2000/svg"
 width="1606.000000pt" height="962.000000pt" viewBox="0 0 1606.000000 962.000000"
 preserveAspectRatio="xMidYMid meet">

<g transform="translate(0.000000,962.000000) scale(0.100000,-0.100000)"
fill="#000000" stroke="none">
<path d="M20 6090 l0 -3510 4325 0 4325 0 0 2580 0 2580 -30 0 -30 0 0 799 0
798 46 7 c26 3 467 6 980 6 l934 0 0 -795 0 -795 25 0 25 0 2 -297 3 -298 2
238 c3 184 6 238 16 234 8 -2 14 -51 17 -168 l6 -164 2 168 c2 154 3 168 20
165 16 -3 17 -30 22 -343 l5 -340 3 343 c2 270 5 343 15 340 9 -4 13 -72 17
-279 l5 -274 3 278 2 278 158 -5 c86 -3 376 -5 645 -5 l487 -1 0 -54 c0 -144
-58 -364 -140 -531 -103 -209 -223 -353 -426 -513 -16 -13 -6 -8 21 9 28 18
98 80 156 138 157 158 268 336 333 536 33 101 66 280 66 360 l0 62 -347 6
c-190 4 -483 7 -650 7 l-303 0 0 55 c0 52 1 55 25 55 l25 0 0 169 c0 92 3 189
6 215 l7 46 2443 0 2444 0 0 -1220 0 -1220 -2455 0 -2455 0 0 205 0 205 -25 0
c-24 0 -25 3 -25 55 0 54 0 55 30 55 17 0 30 4 30 8 0 5 -13 7 -30 4 l-30 -4
-3 388 -2 389 -3 -387 c-2 -336 -4 -388 -17 -388 -13 0 -15 46 -18 328 l-2
327 -3 -327 c-2 -320 -2 -328 -22 -328 -19 0 -20 8 -23 498 l-2 497 -3 -497
c-2 -433 -4 -498 -17 -498 -13 0 -15 57 -18 433 l-2 432 -3 -492 -2 -493 -24
0 c-21 0 -24 -6 -30 -51 -7 -52 -1 -2674 10 -4227 l6 -853 120 3 119 3 0 980
c-1 539 -4 1544 -8 2233 l-6 1252 2576 0 2577 0 0 1470 0 1470 -2565 0 -2565
0 -2 578 -3 577 -4187 3 -4188 2 0 -30 0 -30 -817 2 -818 3 -3 28 -3 27 -390
0 -389 0 0 -3510z m2300 3410 l0 -30 -330 0 c-287 0 -330 2 -330 15 0 13 -48
15 -370 15 -346 0 -370 -1 -370 -17 0 -17 21 -18 330 -15 290 2 330 1 330 -13
0 -13 45 -15 370 -15 324 0 370 -2 370 -15 0 -14 -85 -15 -752 -13 l-753 3 -3
58 -3 57 756 0 755 0 0 -30z m110 -30 l0 -60 -50 0 -50 0 0 60 0 60 50 0 50 0
0 -60z m-957 13 c-101 -2 -265 -2 -365 0 -101 1 -19 2 182 2 201 0 283 -1 183
-2z m670 -30 c-100 -2 -266 -2 -370 0 -103 1 -21 2 182 2 204 0 288 -1 188 -2z
m297 -78 l0 -25 995 0 c791 0 993 -3 990 -12 -4 -10 -32 -12 -106 -10 -114 4
-129 -3 -129 -55 0 -68 -74 -63 1030 -63 1102 0 1030 -4 1030 62 0 53 -12 58
-132 58 -65 0 -108 4 -108 10 0 11 2356 14 2423 4 l37 -7 0 -53 c0 -49 -2 -54
-22 -55 l-23 -2 23 -4 22 -4 0 -679 0 -679 -645 -1 -645 0 0 52 c0 127 50 340
112 485 76 173 167 304 312 448 62 61 79 80 42 50 -184 -155 -332 -377 -410
-615 -38 -116 -66 -274 -66 -369 l0 -61 650 0 650 0 0 -55 c0 -52 -1 -55 -25
-55 l-25 0 0 -2455 0 -2455 -810 0 -810 0 0 320 0 320 -1635 0 -1635 0 0 -320
0 -320 -1635 0 -1635 0 0 3260 0 3260 270 0 270 0 0 25 0 25 820 0 820 0 0
-25z m2035 -74 l-16 -31 881 0 c580 0 880 -3 880 -10 0 -7 -340 -10 -1000 -10
-660 0 -1000 3 -1000 10 0 6 45 10 114 10 107 0 114 1 109 19 -3 12 4 28 18
42 28 28 36 12 14 -30z m1109 33 c3 -9 6 -24 6 -35 0 -18 -12 -19 -381 -19
l-381 0 6 23 c3 12 6 28 6 35 0 9 81 12 369 12 327 0 370 -2 375 -16z m406
-15 c14 -25 12 -39 -3 -39 -13 0 -37 40 -37 60 0 15 30 0 40 -21z m2610 -39
l0 -51 -57 3 -58 3 -3 48 -3 47 60 0 61 0 0 -50z m-4170 10 c0 -6 -43 -10
-110 -10 -67 0 -110 4 -110 10 0 6 43 10 110 10 67 0 110 -4 110 -10z m1800 0
c0 -6 -43 -10 -110 -10 -67 0 -110 4 -110 10 0 6 43 10 110 10 67 0 110 -4
110 -10z m2280 -751 c0 -540 -3 -680 -12 -677 -10 4 -14 151 -16 681 -2 598 0
677 13 677 13 0 15 -81 15 -681z m50 0 c0 -643 -1 -680 -17 -677 -17 3 -18 45
-21 681 -2 672 -2 677 18 677 20 0 20 -6 20 -681z m40 0 c0 -540 -3 -680 -12
-677 -10 4 -14 148 -16 669 -1 365 0 670 3 677 2 6 9 12 15 12 7 0 10 -220 10
-681z m0 -739 l0 -50 -60 0 -60 0 0 43 c0 24 3 47 7 50 3 4 30 7 60 7 l53 0 0
-50z m2148 -97 l-3 -48 -57 -3 -58 -3 0 51 0 50 61 0 60 0 -3 -47z m-10 -1485
l3 -48 -60 0 -61 0 0 50 0 51 58 -3 57 -3 3 -47z m-4188 -3188 l0 -200 -1385
0 -1385 0 0 200 0 200 1385 0 1385 0 0 -200z"/>
<path d="M2036 9251 c-10 -16 4 -18 84 -11 l75 7 -62 1 c-34 1 -68 5 -76 8 -8
3 -18 1 -21 -5z"/>
<path d="M8380 9220 l-35 -7 38 -2 c20 0 37 4 37 9 0 6 -1 9 -2 9 -2 -1 -19
-5 -38 -9z"/>
<path d="M8303 9203 c9 -2 23 -2 30 0 6 3 -1 5 -18 5 -16 0 -22 -2 -12 -5z"/>
<path d="M8215 9190 c-14 -7 -8 -8 20 -3 22 3 42 7 44 9 9 8 -45 2 -64 -6z"/>
<path d="M8145 9170 c-13 -5 -14 -9 -5 -9 8 0 24 4 35 9 13 5 14 9 5 9 -8 0
-24 -4 -35 -9z"/>
<path d="M8080 9150 c-18 -12 -2 -12 25 0 13 6 15 9 5 9 -8 0 -22 -4 -30 -9z"/>
<path d="M8010 9120 c-8 -5 -10 -10 -5 -10 6 0 17 5 25 10 8 5 11 10 5 10 -5
0 -17 -5 -25 -10z"/>
<path d="M7960 9100 c-8 -5 -10 -10 -5 -10 6 0 17 5 25 10 8 5 11 10 5 10 -5
0 -17 -5 -25 -10z"/>
<path d="M7908 9074 c-38 -20 -36 -28 2 -9 17 9 30 18 30 20 0 7 -1 6 -32 -11z"/>
<path d="M7789 9004 c-30 -20 -61 -43 -69 -52 -8 -8 17 7 55 33 75 50 81 55
73 55 -3 0 -30 -16 -59 -36z"/>
<path d="M11420 6489 c-22 -18 -22 -19 -3 -10 12 6 25 16 28 21 9 15 3 12 -25
-11z"/>
<path d="M11328 6439 c-21 -11 -38 -22 -38 -24 0 -3 18 4 40 15 22 11 40 23
40 25 0 7 0 7 -42 -16z"/>
<path d="M11250 6400 c-8 -5 -10 -10 -5 -10 6 0 17 5 25 10 8 5 11 10 5 10 -5
0 -17 -5 -25 -10z"/>
<path d="M11180 6370 c-8 -5 -10 -10 -5 -10 6 0 17 5 25 10 8 5 11 10 5 10 -5
0 -17 -5 -25 -10z"/>
<path d="M11125 6350 c-13 -6 -15 -9 -5 -9 8 0 22 4 30 9 18 12 2 12 -25 0z"/>
<path d="M11055 6330 c-13 -5 -14 -9 -5 -9 8 0 24 4 35 9 13 5 14 9 5 9 -8 0
-24 -4 -35 -9z"/>
<path d="M10945 6304 l-60 -13 53 5 c29 2 62 9 75 14 31 12 3 10 -68 -6z"/>
<path d="M10833 6283 c9 -2 25 -2 35 0 9 3 1 5 -18 5 -19 0 -27 -2 -17 -5z"/>
</g>
</svg>
